solid OpenSCAD_Model
  facet normal -0.991445 -0.130526 -0
    outer loop
      vertex 0 1 0
      vertex 0.034074 0.741181 0
      vertex 0 1 6
    endloop
  endfacet
  facet normal -0.991445 -0.130526 0
    outer loop
      vertex 0 1 6
      vertex 0.034074 0.741181 0
      vertex 0.034074 0.741181 6
    endloop
  endfacet
  facet normal -0 -0 -1
    outer loop
      vertex 0 1 0
      vertex 0 27 0
      vertex 0.034074 0.741181 0
    endloop
  endfacet
  facet normal 0 0 -1
    outer loop
      vertex 0.034074 0.741181 0
      vertex 0 27 0
      vertex 0.034074 27.2588 0
    endloop
  endfacet
  facet normal 0 -0 -1
    outer loop
      vertex 0.034074 0.741181 0
      vertex 0.034074 27.2588 0
      vertex 0.133975 27.5 0
    endloop
  endfacet
  facet normal 0 0 -1
    outer loop
      vertex 0.034074 0.741181 0
      vertex 0.133975 27.5 0
      vertex 0.292893 27.7071 0
    endloop
  endfacet
  facet normal 0 0 -1
    outer loop
      vertex 0.034074 0.741181 0
      vertex 0.292893 27.7071 0
      vertex 0.5 27.866 0
    endloop
  endfacet
  facet normal 0 0 -1
    outer loop
      vertex 0.034074 0.741181 0
      vertex 0.5 27.866 0
      vertex 0.741181 27.9659 0
    endloop
  endfacet
  facet normal 0 0 -1
    outer loop
      vertex 0.034074 0.741181 0
      vertex 0.741181 27.9659 0
      vertex 1 28 0
    endloop
  endfacet
  facet normal 0 -0 -1
    outer loop
      vertex 16 26.7279 0
      vertex 1 28 0
      vertex 28 28 0
    endloop
  endfacet
  facet normal 0 0 -1
    outer loop
      vertex 26 24 0
      vertex 28.5 27.866 0
      vertex 31.5 25.866 0
    endloop
  endfacet
  facet normal 0 0 -1
    outer loop
      vertex 18.7279 24 0
      vertex 28.2588 27.9659 0
      vertex 28.5 27.866 0
    endloop
  endfacet
  facet normal 0 0 -1
    outer loop
      vertex 26 21.172 0
      vertex 31.7071 25.7071 0
      vertex 31.866 25.5 0
    endloop
  endfacet
  facet normal -0 0 -1
    outer loop
      vertex 26 24 0
      vertex 31.7071 25.7071 0
      vertex 26 21.172 0
    endloop
  endfacet
  facet normal -0 0 -1
    outer loop
      vertex 35.8 26.235 0
      vertex 37 27.435 0
      vertex 35.8 24 0
    endloop
  endfacet
  facet normal -0 0 -1
    outer loop
      vertex 35.8 24 0
      vertex 37 27.435 0
      vertex 40.5 23.935 0
    endloop
  endfacet
  facet normal -0 0 -1
    outer loop
      vertex 18.7279 24 0
      vertex 28.5 27.866 0
      vertex 26 24 0
    endloop
  endfacet
  facet normal 0 0 -1
    outer loop
      vertex 26 24 0
      vertex 31.5 25.866 0
      vertex 31.7071 25.7071 0
    endloop
  endfacet
  facet normal 0 0 -1
    outer loop
      vertex 18.7279 24 0
      vertex 28 28 0
      vertex 28.2588 27.9659 0
    endloop
  endfacet
  facet normal 0 0 -1
    outer loop
      vertex 3.27208 14 0
      vertex 6 24 0
      vertex 6 16.7279 0
    endloop
  endfacet
  facet normal 0 -0 -1
    outer loop
      vertex 12.6863 24 0
      vertex 1 28 0
      vertex 14 25.3137 0
    endloop
  endfacet
  facet normal 0 -0 -1
    outer loop
      vertex 14 25.3137 0
      vertex 1 28 0
      vertex 16 26.7279 0
    endloop
  endfacet
  facet normal 0 -0 -1
    outer loop
      vertex 18.7279 24 0
      vertex 16 26.7279 0
      vertex 28 28 0
    endloop
  endfacet
  facet normal 0 -0 -1
    outer loop
      vertex 14.2929 25.0208 0
      vertex 14 25.3137 0
      vertex 16 26.7279 0
    endloop
  endfacet
  facet normal -0 -0 -1
    outer loop
      vertex 6 24 0
      vertex 1 28 0
      vertex 12.6863 24 0
    endloop
  endfacet
  facet normal 0 -0 -1
    outer loop
      vertex 3.27208 14 0
      vertex 1 28 0
      vertex 6 24 0
    endloop
  endfacet
  facet normal 0 0 -1
    outer loop
      vertex 0.034074 0.741181 0
      vertex 1 28 0
      vertex 3.27208 14 0
    endloop
  endfacet
  facet normal 0 0 -1
    outer loop
      vertex 6 11.2721 0
      vertex 0.034074 0.741181 0
      vertex 3.27208 14 0
    endloop
  endfacet
  facet normal 0 0 -1
    outer loop
      vertex 6 4 0
      vertex 0.034074 0.741181 0
      vertex 6 11.2721 0
    endloop
  endfacet
  facet normal 0 0 -1
    outer loop
      vertex 16 1.27208 0
      vertex 14 2.68629 0
      vertex 14.2929 2.97918 0
    endloop
  endfacet
  facet normal 0 0 -1
    outer loop
      vertex 0.034074 0.741181 0
      vertex 12.6863 4 0
      vertex 14 2.68629 0
    endloop
  endfacet
  facet normal 0 0 -1
    outer loop
      vertex 14 2.68629 0
      vertex 16 1.27208 0
      vertex 0.034074 0.741181 0
    endloop
  endfacet
  facet normal 0 0 -1
    outer loop
      vertex 26 4 0
      vertex 16 1.27208 0
      vertex 18.7279 4 0
    endloop
  endfacet
  facet normal 0 0 -1
    outer loop
      vertex 28.5 0.133975 0
      vertex 0.034074 0.741181 0
      vertex 16 1.27208 0
    endloop
  endfacet
  facet normal 0 0 -1
    outer loop
      vertex 40.5 6.828 0
      vertex 26 4 0
      vertex 26 6.828 0
    endloop
  endfacet
  facet normal -0 0 -1
    outer loop
      vertex 35.8 4 0
      vertex 40.5 4.06497 0
      vertex 35.8 1.76497 0
    endloop
  endfacet
  facet normal -0 0 -1
    outer loop
      vertex 26 4 0
      vertex 40.5 6.828 0
      vertex 16 1.27208 0
    endloop
  endfacet
  facet normal 0 0 -1
    outer loop
      vertex 35.8 4 0
      vertex 40.5 6.828 0
      vertex 40.5 4.06497 0
    endloop
  endfacet
  facet normal -0 0 -1
    outer loop
      vertex 35.8 1.76497 0
      vertex 40.5 4.06497 0
      vertex 37 0.564971 0
    endloop
  endfacet
  facet normal -0 0 -1
    outer loop
      vertex 32 4 0
      vertex 40.5 6.828 0
      vertex 35.8 4 0
    endloop
  endfacet
  facet normal 0 0 -1
    outer loop
      vertex 32 3 0
      vertex 16 1.27208 0
      vertex 32 4 0
    endloop
  endfacet
  facet normal 0 0 -1
    outer loop
      vertex 16 1.27208 0
      vertex 40.5 6.828 0
      vertex 32 4 0
    endloop
  endfacet
  facet normal 0 -0 -1
    outer loop
      vertex 28.5 0.133975 0
      vertex 16 1.27208 0
      vertex 31.5 2.13397 0
    endloop
  endfacet
  facet normal 0 0 -1
    outer loop
      vertex 16 1.27208 0
      vertex 32 3 0
      vertex 31.9659 2.74118 0
    endloop
  endfacet
  facet normal 0 0 -1
    outer loop
      vertex 16 1.27208 0
      vertex 31.9659 2.74118 0
      vertex 31.866 2.5 0
    endloop
  endfacet
  facet normal 0 0 -1
    outer loop
      vertex 16 1.27208 0
      vertex 31.866 2.5 0
      vertex 31.7071 2.29289 0
    endloop
  endfacet
  facet normal 0 0 -1
    outer loop
      vertex 16 1.27208 0
      vertex 31.7071 2.29289 0
      vertex 31.5 2.13397 0
    endloop
  endfacet
  facet normal 0 0 -1
    outer loop
      vertex 0.034074 0.741181 0
      vertex 28.5 0.133975 0
      vertex 28.2588 0.034074 0
    endloop
  endfacet
  facet normal 0 0 -1
    outer loop
      vertex 0.034074 0.741181 0
      vertex 28.2588 0.034074 0
      vertex 28 0 0
    endloop
  endfacet
  facet normal 0 0 -1
    outer loop
      vertex 0.034074 0.741181 0
      vertex 28 0 0
      vertex 1 0 0
    endloop
  endfacet
  facet normal 0 0 -1
    outer loop
      vertex 0.034074 0.741181 0
      vertex 1 0 0
      vertex 0.741181 0.034074 0
    endloop
  endfacet
  facet normal 0 0 -1
    outer loop
      vertex 0.034074 0.741181 0
      vertex 0.741181 0.034074 0
      vertex 0.5 0.133975 0
    endloop
  endfacet
  facet normal 0 0 -1
    outer loop
      vertex 0.034074 0.741181 0
      vertex 0.5 0.133975 0
      vertex 0.292893 0.292893 0
    endloop
  endfacet
  facet normal 0 0 -1
    outer loop
      vertex 0.034074 0.741181 0
      vertex 0.292893 0.292893 0
      vertex 0.133975 0.5 0
    endloop
  endfacet
  facet normal 0 0 -1
    outer loop
      vertex 26 21.172 0
      vertex 31.866 25.5 0
      vertex 31.9659 25.2588 0
    endloop
  endfacet
  facet normal 0 0 -1
    outer loop
      vertex 26 21.172 0
      vertex 31.9659 25.2588 0
      vertex 32 25 0
    endloop
  endfacet
  facet normal 0 0 -1
    outer loop
      vertex 26 21.172 0
      vertex 32 25 0
      vertex 32 24 0
    endloop
  endfacet
  facet normal 0 0 -1
    outer loop
      vertex 26 21.172 0
      vertex 32 24 0
      vertex 35.8 24 0
    endloop
  endfacet
  facet normal 0 0 -1
    outer loop
      vertex 26 21.172 0
      vertex 35.8 24 0
      vertex 40.5 23.935 0
    endloop
  endfacet
  facet normal -0 0 -1
    outer loop
      vertex 26 21.172 0
      vertex 40.5 23.935 0
      vertex 40.5 21.172 0
    endloop
  endfacet
  facet normal 0 0 -1
    outer loop
      vertex 12.6863 4 0
      vertex 0.034074 0.741181 0
      vertex 6 4 0
    endloop
  endfacet
  facet normal -1 -0 -0
    outer loop
      vertex 0 1 0
      vertex 0 1 6
      vertex 0 27 0
    endloop
  endfacet
  facet normal -1 0 0
    outer loop
      vertex 0 27 0
      vertex 0 1 6
      vertex 0 27 6
    endloop
  endfacet
  facet normal 0 -0 1
    outer loop
      vertex 0 27 6
      vertex 0 1 6
      vertex 0.034074 0.741181 6
    endloop
  endfacet
  facet normal 0 0 1
    outer loop
      vertex 0.292893 0.292893 6
      vertex 0 27 6
      vertex 0.133975 0.5 6
    endloop
  endfacet
  facet normal 0 0 1
    outer loop
      vertex 0.133975 0.5 6
      vertex 0 27 6
      vertex 0.034074 0.741181 6
    endloop
  endfacet
  facet normal 0 0 1
    outer loop
      vertex 0.5 0.133975 6
      vertex 0 27 6
      vertex 0.292893 0.292893 6
    endloop
  endfacet
  facet normal 0 0 1
    outer loop
      vertex 0.741181 0.034074 6
      vertex 0 27 6
      vertex 0.5 0.133975 6
    endloop
  endfacet
  facet normal 0 0 1
    outer loop
      vertex 1 0 6
      vertex 0 27 6
      vertex 0.741181 0.034074 6
    endloop
  endfacet
  facet normal -0 0 1
    outer loop
      vertex 3.27208 14 6
      vertex 0 27 6
      vertex 1 0 6
    endloop
  endfacet
  facet normal -0 0 1
    outer loop
      vertex 14 2.68629 6
      vertex 12.6863 4 6
      vertex 1 0 6
    endloop
  endfacet
  facet normal 0 0 1
    outer loop
      vertex 26 4 6
      vertex 28.2588 0.034074 6
      vertex 28.5 0.133975 6
    endloop
  endfacet
  facet normal 0 0 1
    outer loop
      vertex 26 4 6
      vertex 28 0 6
      vertex 28.2588 0.034074 6
    endloop
  endfacet
  facet normal 0 0 1
    outer loop
      vertex 26 6.828 6
      vertex 31.5 2.13397 6
      vertex 31.7071 2.29289 6
    endloop
  endfacet
  facet normal 0 -0 1
    outer loop
      vertex 26 6.828 6
      vertex 26 4 6
      vertex 31.5 2.13397 6
    endloop
  endfacet
  facet normal 0 0 1
    outer loop
      vertex 30 6.828 6
      vertex 26 6.828 6
      vertex 30 4 6
    endloop
  endfacet
  facet normal 0 0 1
    outer loop
      vertex 26 21.172 6
      vertex 30 21.172 6
      vertex 26 24 6
    endloop
  endfacet
  facet normal -0 0 1
    outer loop
      vertex 31.9659 2.74118 6
      vertex 30 4 6
      vertex 31.866 2.5 6
    endloop
  endfacet
  facet normal -0 0 1
    outer loop
      vertex 31.866 2.5 6
      vertex 26 6.828 6
      vertex 31.7071 2.29289 6
    endloop
  endfacet
  facet normal -0 0 1
    outer loop
      vertex 31.5 2.13397 6
      vertex 26 4 6
      vertex 28.5 0.133975 6
    endloop
  endfacet
  facet normal -0 0 1
    outer loop
      vertex 6 11.2721 6
      vertex 3.27208 14 6
      vertex 6 4 6
    endloop
  endfacet
  facet normal -0 0 1
    outer loop
      vertex 28 0 6
      vertex 16 1.27208 6
      vertex 1 0 6
    endloop
  endfacet
  facet normal 0 0 1
    outer loop
      vertex 28 0 6
      vertex 18.7279 4 6
      vertex 16 1.27208 6
    endloop
  endfacet
  facet normal 0 0 1
    outer loop
      vertex 3.27208 14 6
      vertex 6 16.7279 6
      vertex 0 27 6
    endloop
  endfacet
  facet normal -0 0 1
    outer loop
      vertex 16 1.27208 6
      vertex 14 2.68629 6
      vertex 1 0 6
    endloop
  endfacet
  facet normal 0 0 1
    outer loop
      vertex 16 1.27208 6
      vertex 14.2929 2.97918 6
      vertex 14 2.68629 6
    endloop
  endfacet
  facet normal 0 0 1
    outer loop
      vertex 12.6863 4 6
      vertex 6 4 6
      vertex 1 0 6
    endloop
  endfacet
  facet normal -0 0 1
    outer loop
      vertex 6 4 6
      vertex 3.27208 14 6
      vertex 1 0 6
    endloop
  endfacet
  facet normal -0 0 1
    outer loop
      vertex 12.6863 24 6
      vertex 0 27 6
      vertex 6 24 6
    endloop
  endfacet
  facet normal -0 0 1
    outer loop
      vertex 14 25.3137 6
      vertex 0 27 6
      vertex 12.6863 24 6
    endloop
  endfacet
  facet normal -0 0 1
    outer loop
      vertex 16 26.7279 6
      vertex 0 27 6
      vertex 14 25.3137 6
    endloop
  endfacet
  facet normal 0 0 1
    outer loop
      vertex 16 26.7279 6
      vertex 14 25.3137 6
      vertex 14.2929 25.0208 6
    endloop
  endfacet
  facet normal 0 0 1
    outer loop
      vertex 28.5 27.866 6
      vertex 0 27 6
      vertex 16 26.7279 6
    endloop
  endfacet
  facet normal -0 0 1
    outer loop
      vertex 26 24 6
      vertex 16 26.7279 6
      vertex 18.7279 24 6
    endloop
  endfacet
  facet normal -0 0 1
    outer loop
      vertex 30 24 6
      vertex 16 26.7279 6
      vertex 26 24 6
    endloop
  endfacet
  facet normal 0 0 1
    outer loop
      vertex 30 24 6
      vertex 26 24 6
      vertex 30 21.172 6
    endloop
  endfacet
  facet normal -0 0 1
    outer loop
      vertex 32 24 6
      vertex 16 26.7279 6
      vertex 30 24 6
    endloop
  endfacet
  facet normal -0 0 1
    outer loop
      vertex 32 25 6
      vertex 16 26.7279 6
      vertex 32 24 6
    endloop
  endfacet
  facet normal -0 -0 1
    outer loop
      vertex 31.9659 25.2588 6
      vertex 16 26.7279 6
      vertex 32 25 6
    endloop
  endfacet
  facet normal -0 -0 1
    outer loop
      vertex 31.866 25.5 6
      vertex 16 26.7279 6
      vertex 31.9659 25.2588 6
    endloop
  endfacet
  facet normal -0 -0 1
    outer loop
      vertex 31.7071 25.7071 6
      vertex 16 26.7279 6
      vertex 31.866 25.5 6
    endloop
  endfacet
  facet normal -0 -0 1
    outer loop
      vertex 31.5 25.866 6
      vertex 16 26.7279 6
      vertex 31.7071 25.7071 6
    endloop
  endfacet
  facet normal 0 -0 1
    outer loop
      vertex 28.5 27.866 6
      vertex 16 26.7279 6
      vertex 31.5 25.866 6
    endloop
  endfacet
  facet normal 0 -0 1
    outer loop
      vertex 28.2588 27.9659 6
      vertex 0 27 6
      vertex 28.5 27.866 6
    endloop
  endfacet
  facet normal 0 -0 1
    outer loop
      vertex 28 28 6
      vertex 0 27 6
      vertex 28.2588 27.9659 6
    endloop
  endfacet
  facet normal 0 -0 1
    outer loop
      vertex 1 28 6
      vertex 0 27 6
      vertex 28 28 6
    endloop
  endfacet
  facet normal 0 -0 1
    outer loop
      vertex 0.741181 27.9659 6
      vertex 0 27 6
      vertex 1 28 6
    endloop
  endfacet
  facet normal 0 -0 1
    outer loop
      vertex 0.5 27.866 6
      vertex 0 27 6
      vertex 0.741181 27.9659 6
    endloop
  endfacet
  facet normal 0 -0 1
    outer loop
      vertex 0.292893 27.7071 6
      vertex 0 27 6
      vertex 0.5 27.866 6
    endloop
  endfacet
  facet normal 0 -0 1
    outer loop
      vertex 0.133975 27.5 6
      vertex 0 27 6
      vertex 0.292893 27.7071 6
    endloop
  endfacet
  facet normal 0 -0 1
    outer loop
      vertex 0.034074 27.2588 6
      vertex 0 27 6
      vertex 0.133975 27.5 6
    endloop
  endfacet
  facet normal -0 -0 1
    outer loop
      vertex 30 4 6
      vertex 26 6.828 6
      vertex 31.866 2.5 6
    endloop
  endfacet
  facet normal 0 0 1
    outer loop
      vertex 32 4 6
      vertex 31.9659 2.74118 6
      vertex 32 3 6
    endloop
  endfacet
  facet normal 0 0 1
    outer loop
      vertex 32 4 6
      vertex 30 4 6
      vertex 31.9659 2.74118 6
    endloop
  endfacet
  facet normal 0 -0 1
    outer loop
      vertex 26 4 6
      vertex 18.7279 4 6
      vertex 28 0 6
    endloop
  endfacet
  facet normal 0 0 1
    outer loop
      vertex 6 16.7279 6
      vertex 6 24 6
      vertex 0 27 6
    endloop
  endfacet
  facet normal -0.923879 -0.382685 -0
    outer loop
      vertex 0.034074 0.741181 0
      vertex 0.133975 0.5 0
      vertex 0.034074 0.741181 6
    endloop
  endfacet
  facet normal -0.923879 -0.382685 0
    outer loop
      vertex 0.034074 0.741181 6
      vertex 0.133975 0.5 0
      vertex 0.133975 0.5 6
    endloop
  endfacet
  facet normal -0.793355 -0.60876 -0
    outer loop
      vertex 0.133975 0.5 0
      vertex 0.292893 0.292893 0
      vertex 0.133975 0.5 6
    endloop
  endfacet
  facet normal -0.793355 -0.60876 0
    outer loop
      vertex 0.133975 0.5 6
      vertex 0.292893 0.292893 0
      vertex 0.292893 0.292893 6
    endloop
  endfacet
  facet normal -0.60876 -0.793355 0
    outer loop
      vertex 0.292893 0.292893 6
      vertex 0.292893 0.292893 0
      vertex 0.5 0.133975 0
    endloop
  endfacet
  facet normal -0.60876 -0.793355 0
    outer loop
      vertex 0.5 0.133975 6
      vertex 0.292893 0.292893 6
      vertex 0.5 0.133975 0
    endloop
  endfacet
  facet normal -0.382685 -0.923879 0
    outer loop
      vertex 0.5 0.133975 6
      vertex 0.5 0.133975 0
      vertex 0.741181 0.034074 0
    endloop
  endfacet
  facet normal -0.382685 -0.923879 0
    outer loop
      vertex 0.741181 0.034074 6
      vertex 0.5 0.133975 6
      vertex 0.741181 0.034074 0
    endloop
  endfacet
  facet normal -0.130526 -0.991445 0
    outer loop
      vertex 0.741181 0.034074 6
      vertex 0.741181 0.034074 0
      vertex 1 0 0
    endloop
  endfacet
  facet normal -0.130526 -0.991445 0
    outer loop
      vertex 1 0 6
      vertex 0.741181 0.034074 6
      vertex 1 0 0
    endloop
  endfacet
  facet normal 0 -1 0
    outer loop
      vertex 1 0 6
      vertex 1 0 0
      vertex 28 0 0
    endloop
  endfacet
  facet normal 0 -1 0
    outer loop
      vertex 28 0 6
      vertex 1 0 6
      vertex 28 0 0
    endloop
  endfacet
  facet normal 0.130526 -0.991445 0
    outer loop
      vertex 28 0 6
      vertex 28 0 0
      vertex 28.2588 0.034074 0
    endloop
  endfacet
  facet normal 0.130526 -0.991445 0
    outer loop
      vertex 28.2588 0.034074 6
      vertex 28 0 6
      vertex 28.2588 0.034074 0
    endloop
  endfacet
  facet normal 0.382685 -0.923879 0
    outer loop
      vertex 28.2588 0.034074 6
      vertex 28.2588 0.034074 0
      vertex 28.5 0.133975 0
    endloop
  endfacet
  facet normal 0.382685 -0.923879 0
    outer loop
      vertex 28.5 0.133975 6
      vertex 28.2588 0.034074 6
      vertex 28.5 0.133975 0
    endloop
  endfacet
  facet normal 0.5547 -0.83205 0
    outer loop
      vertex 28.5 0.133975 6
      vertex 28.5 0.133975 0
      vertex 31.5 2.13397 0
    endloop
  endfacet
  facet normal 0.5547 -0.83205 0
    outer loop
      vertex 31.5 2.13397 6
      vertex 28.5 0.133975 6
      vertex 31.5 2.13397 0
    endloop
  endfacet
  facet normal 0.60876 -0.793355 0
    outer loop
      vertex 31.5 2.13397 6
      vertex 31.5 2.13397 0
      vertex 31.7071 2.29289 0
    endloop
  endfacet
  facet normal 0.60876 -0.793355 0
    outer loop
      vertex 31.7071 2.29289 6
      vertex 31.5 2.13397 6
      vertex 31.7071 2.29289 0
    endloop
  endfacet
  facet normal 0.793355 -0.60876 0
    outer loop
      vertex 31.7071 2.29289 6
      vertex 31.7071 2.29289 0
      vertex 31.866 2.5 0
    endloop
  endfacet
  facet normal 0.793355 -0.60876 0
    outer loop
      vertex 31.866 2.5 6
      vertex 31.7071 2.29289 6
      vertex 31.866 2.5 0
    endloop
  endfacet
  facet normal 0.923879 -0.382685 0
    outer loop
      vertex 31.866 2.5 6
      vertex 31.866 2.5 0
      vertex 31.9659 2.74118 0
    endloop
  endfacet
  facet normal 0.923879 -0.382685 0
    outer loop
      vertex 31.9659 2.74118 6
      vertex 31.866 2.5 6
      vertex 31.9659 2.74118 0
    endloop
  endfacet
  facet normal 0.991445 -0.130526 0
    outer loop
      vertex 31.9659 2.74118 6
      vertex 31.9659 2.74118 0
      vertex 32 3 0
    endloop
  endfacet
  facet normal 0.991445 -0.130526 0
    outer loop
      vertex 32 3 6
      vertex 31.9659 2.74118 6
      vertex 32 3 0
    endloop
  endfacet
  facet normal 1 0 -0
    outer loop
      vertex 32 3 6
      vertex 32 3 0
      vertex 32 4 0
    endloop
  endfacet
  facet normal 1 0 0
    outer loop
      vertex 32 4 6
      vertex 32 3 6
      vertex 32 4 0
    endloop
  endfacet
  facet normal 0 -1.53134e-16 0
    outer loop
      vertex 35.8 4 6
      vertex 30 4 6
      vertex 32 4 6
    endloop
  endfacet
  facet normal -0 -1 -0
    outer loop
      vertex 32 4 0
      vertex 35.8 4 0
      vertex 32 4 6
    endloop
  endfacet
  facet normal 0 -1 0
    outer loop
      vertex 35.8 4 0
      vertex 35.8 4 6
      vertex 32 4 6
    endloop
  endfacet
  facet normal -1 0 0
    outer loop
      vertex 35.8 4 6
      vertex 35.8 4 0
      vertex 35.8 1.76497 6
    endloop
  endfacet
  facet normal -1 0 0
    outer loop
      vertex 35.8 1.76497 6
      vertex 35.8 4 0
      vertex 35.8 1.76497 0
    endloop
  endfacet
  facet normal -0.707107 -0.707107 0
    outer loop
      vertex 35.8 1.76497 6
      vertex 35.8 1.76497 0
      vertex 37 0.564971 0
    endloop
  endfacet
  facet normal -0.707107 -0.707107 0
    outer loop
      vertex 37 0.564971 6
      vertex 35.8 1.76497 6
      vertex 37 0.564971 0
    endloop
  endfacet
  facet normal 0.707107 -0.707107 0
    outer loop
      vertex 37 0.564971 6
      vertex 37 0.564971 0
      vertex 40.5 4.06497 0
    endloop
  endfacet
  facet normal 0.707107 -0.707107 0
    outer loop
      vertex 40.5 4.06497 6
      vertex 37 0.564971 6
      vertex 40.5 4.06497 0
    endloop
  endfacet
  facet normal 1 0 0
    outer loop
      vertex 40.5 6.828 0
      vertex 40.5 6.828 6
      vertex 40.5 4.06497 6
    endloop
  endfacet
  facet normal 1 0 0
    outer loop
      vertex 40.5 4.06497 0
      vertex 40.5 6.828 0
      vertex 40.5 4.06497 6
    endloop
  endfacet
  facet normal 0 1 0
    outer loop
      vertex 30 6.828 6
      vertex 40.5 6.828 6
      vertex 40.5 6.828 0
    endloop
  endfacet
  facet normal 0 1 -0
    outer loop
      vertex 30 6.828 6
      vertex 40.5 6.828 0
      vertex 26 6.828 6
    endloop
  endfacet
  facet normal -0 1 0
    outer loop
      vertex 40.5 6.828 0
      vertex 26 6.828 0
      vertex 26 6.828 6
    endloop
  endfacet
  facet normal -1 0 0
    outer loop
      vertex 26 6.828 6
      vertex 26 6.828 0
      vertex 26 4 6
    endloop
  endfacet
  facet normal -1 0 0
    outer loop
      vertex 26 4 6
      vertex 26 6.828 0
      vertex 26 4 0
    endloop
  endfacet
  facet normal 0 1 0
    outer loop
      vertex 26 4 6
      vertex 26 4 0
      vertex 18.7279 4 6
    endloop
  endfacet
  facet normal 0 1 -0
    outer loop
      vertex 18.7279 4 6
      vertex 26 4 0
      vertex 18.7279 4 0
    endloop
  endfacet
  facet normal -0.707107 0.707107 0
    outer loop
      vertex 18.7279 4 6
      vertex 18.7279 4 0
      vertex 16 1.27208 6
    endloop
  endfacet
  facet normal -0.707107 0.707107 0
    outer loop
      vertex 16 1.27208 6
      vertex 18.7279 4 0
      vertex 16 1.27208 0
    endloop
  endfacet
  facet normal 0.707107 0.707107 -0
    outer loop
      vertex 16 1.27208 6
      vertex 16 1.27208 0
      vertex 14.2929 2.97918 6
    endloop
  endfacet
  facet normal 0.707107 0.707107 -0
    outer loop
      vertex 14.2929 2.97918 6
      vertex 16 1.27208 0
      vertex 14.2929 2.97918 0
    endloop
  endfacet
  facet normal -0.707107 0.707107 0
    outer loop
      vertex 14.2929 2.97918 6
      vertex 14.2929 2.97918 0
      vertex 14 2.68629 6
    endloop
  endfacet
  facet normal -0.707107 0.707107 0
    outer loop
      vertex 14 2.68629 6
      vertex 14.2929 2.97918 0
      vertex 14 2.68629 0
    endloop
  endfacet
  facet normal 0.707107 0.707107 -0
    outer loop
      vertex 14 2.68629 6
      vertex 14 2.68629 0
      vertex 12.6863 4 6
    endloop
  endfacet
  facet normal 0.707107 0.707107 -0
    outer loop
      vertex 12.6863 4 6
      vertex 14 2.68629 0
      vertex 12.6863 4 0
    endloop
  endfacet
  facet normal 0 1 0
    outer loop
      vertex 12.6863 4 6
      vertex 12.6863 4 0
      vertex 6 4 6
    endloop
  endfacet
  facet normal 0 1 -0
    outer loop
      vertex 6 4 6
      vertex 12.6863 4 0
      vertex 6 4 0
    endloop
  endfacet
  facet normal 1 0 0
    outer loop
      vertex 6 11.2721 0
      vertex 6 11.2721 6
      vertex 6 4 6
    endloop
  endfacet
  facet normal 1 0 0
    outer loop
      vertex 6 4 0
      vertex 6 11.2721 0
      vertex 6 4 6
    endloop
  endfacet
  facet normal 0.707107 0.707107 0
    outer loop
      vertex 3.27208 14 6
      vertex 6 11.2721 6
      vertex 6 11.2721 0
    endloop
  endfacet
  facet normal 0.707107 0.707107 0
    outer loop
      vertex 3.27208 14 0
      vertex 3.27208 14 6
      vertex 6 11.2721 0
    endloop
  endfacet
  facet normal 0.707107 -0.707107 0
    outer loop
      vertex 6 16.7279 0
      vertex 6 16.7279 6
      vertex 3.27208 14 6
    endloop
  endfacet
  facet normal 0.707107 -0.707107 0
    outer loop
      vertex 3.27208 14 0
      vertex 6 16.7279 0
      vertex 3.27208 14 6
    endloop
  endfacet
  facet normal 1 0 0
    outer loop
      vertex 6 24 0
      vertex 6 24 6
      vertex 6 16.7279 6
    endloop
  endfacet
  facet normal 1 0 0
    outer loop
      vertex 6 16.7279 0
      vertex 6 24 0
      vertex 6 16.7279 6
    endloop
  endfacet
  facet normal 0 -1 0
    outer loop
      vertex 12.6863 24 0
      vertex 12.6863 24 6
      vertex 6 24 6
    endloop
  endfacet
  facet normal -0 -1 -0
    outer loop
      vertex 6 24 0
      vertex 12.6863 24 0
      vertex 6 24 6
    endloop
  endfacet
  facet normal 0.707107 -0.707107 0
    outer loop
      vertex 14 25.3137 0
      vertex 14 25.3137 6
      vertex 12.6863 24 6
    endloop
  endfacet
  facet normal 0.707107 -0.707107 0
    outer loop
      vertex 12.6863 24 0
      vertex 14 25.3137 0
      vertex 12.6863 24 6
    endloop
  endfacet
  facet normal -0.707107 -0.707107 -0
    outer loop
      vertex 14.2929 25.0208 0
      vertex 14.2929 25.0208 6
      vertex 14 25.3137 6
    endloop
  endfacet
  facet normal -0.707107 -0.707107 -0
    outer loop
      vertex 14 25.3137 0
      vertex 14.2929 25.0208 0
      vertex 14 25.3137 6
    endloop
  endfacet
  facet normal 0.707107 -0.707107 0
    outer loop
      vertex 16 26.7279 0
      vertex 16 26.7279 6
      vertex 14.2929 25.0208 6
    endloop
  endfacet
  facet normal 0.707107 -0.707107 0
    outer loop
      vertex 14.2929 25.0208 0
      vertex 16 26.7279 0
      vertex 14.2929 25.0208 6
    endloop
  endfacet
  facet normal -0.707107 -0.707107 -0
    outer loop
      vertex 18.7279 24 0
      vertex 18.7279 24 6
      vertex 16 26.7279 6
    endloop
  endfacet
  facet normal -0.707107 -0.707107 -0
    outer loop
      vertex 16 26.7279 0
      vertex 18.7279 24 0
      vertex 16 26.7279 6
    endloop
  endfacet
  facet normal 0 -1 0
    outer loop
      vertex 26 24 0
      vertex 26 24 6
      vertex 18.7279 24 6
    endloop
  endfacet
  facet normal -0 -1 -0
    outer loop
      vertex 18.7279 24 0
      vertex 26 24 0
      vertex 18.7279 24 6
    endloop
  endfacet
  facet normal -1 0 0
    outer loop
      vertex 26 24 6
      vertex 26 24 0
      vertex 26 21.172 6
    endloop
  endfacet
  facet normal -1 0 0
    outer loop
      vertex 26 21.172 6
      vertex 26 24 0
      vertex 26 21.172 0
    endloop
  endfacet
  facet normal 0 -1 0
    outer loop
      vertex 40.5 21.172 0
      vertex 40.5 21.172 6
      vertex 30 21.172 6
    endloop
  endfacet
  facet normal 0 -1 0
    outer loop
      vertex 26 21.172 6
      vertex 40.5 21.172 0
      vertex 30 21.172 6
    endloop
  endfacet
  facet normal -0 -1 -0
    outer loop
      vertex 26 21.172 0
      vertex 40.5 21.172 0
      vertex 26 21.172 6
    endloop
  endfacet
  facet normal 1 0 0
    outer loop
      vertex 40.5 23.935 0
      vertex 40.5 23.935 6
      vertex 40.5 21.172 6
    endloop
  endfacet
  facet normal 1 0 0
    outer loop
      vertex 40.5 21.172 0
      vertex 40.5 23.935 0
      vertex 40.5 21.172 6
    endloop
  endfacet
  facet normal 0.707107 0.707107 0
    outer loop
      vertex 37 27.435 0
      vertex 37 27.435 6
      vertex 40.5 23.935 0
    endloop
  endfacet
  facet normal 0.707107 0.707107 0
    outer loop
      vertex 40.5 23.935 0
      vertex 37 27.435 6
      vertex 40.5 23.935 6
    endloop
  endfacet
  facet normal -0.707107 0.707107 0
    outer loop
      vertex 35.8 26.235 0
      vertex 35.8 26.235 6
      vertex 37 27.435 0
    endloop
  endfacet
  facet normal -0.707107 0.707107 0
    outer loop
      vertex 37 27.435 0
      vertex 35.8 26.235 6
      vertex 37 27.435 6
    endloop
  endfacet
  facet normal -1 0 0
    outer loop
      vertex 35.8 26.235 6
      vertex 35.8 26.235 0
      vertex 35.8 24 6
    endloop
  endfacet
  facet normal -1 0 0
    outer loop
      vertex 35.8 24 6
      vertex 35.8 26.235 0
      vertex 35.8 24 0
    endloop
  endfacet
  facet normal 0 3.56748e-16 0
    outer loop
      vertex 32 24 6
      vertex 30 24 6
      vertex 35.8 24 6
    endloop
  endfacet
  facet normal 0 1 0
    outer loop
      vertex 32 24 6
      vertex 35.8 24 6
      vertex 35.8 24 0
    endloop
  endfacet
  facet normal 0 1 -0
    outer loop
      vertex 32 24 6
      vertex 35.8 24 0
      vertex 32 24 0
    endloop
  endfacet
  facet normal 1 0 -0
    outer loop
      vertex 32 24 6
      vertex 32 24 0
      vertex 32 25 0
    endloop
  endfacet
  facet normal 1 0 0
    outer loop
      vertex 32 25 6
      vertex 32 24 6
      vertex 32 25 0
    endloop
  endfacet
  facet normal 0.991445 0.130526 0
    outer loop
      vertex 32 25 0
      vertex 31.9659 25.2588 0
      vertex 31.9659 25.2588 6
    endloop
  endfacet
  facet normal 0.991445 0.130526 -0
    outer loop
      vertex 32 25 6
      vertex 32 25 0
      vertex 31.9659 25.2588 6
    endloop
  endfacet
  facet normal 0.923879 0.382685 0
    outer loop
      vertex 31.9659 25.2588 0
      vertex 31.866 25.5 0
      vertex 31.866 25.5 6
    endloop
  endfacet
  facet normal 0.923879 0.382685 -0
    outer loop
      vertex 31.9659 25.2588 6
      vertex 31.9659 25.2588 0
      vertex 31.866 25.5 6
    endloop
  endfacet
  facet normal 0.793355 0.60876 0
    outer loop
      vertex 31.866 25.5 0
      vertex 31.7071 25.7071 0
      vertex 31.7071 25.7071 6
    endloop
  endfacet
  facet normal 0.793355 0.60876 -0
    outer loop
      vertex 31.866 25.5 6
      vertex 31.866 25.5 0
      vertex 31.7071 25.7071 6
    endloop
  endfacet
  facet normal 0.60876 0.793355 0
    outer loop
      vertex 31.5 25.866 0
      vertex 31.5 25.866 6
      vertex 31.7071 25.7071 0
    endloop
  endfacet
  facet normal 0.60876 0.793355 0
    outer loop
      vertex 31.7071 25.7071 0
      vertex 31.5 25.866 6
      vertex 31.7071 25.7071 6
    endloop
  endfacet
  facet normal 0.5547 0.83205 0
    outer loop
      vertex 28.5 27.866 0
      vertex 28.5 27.866 6
      vertex 31.5 25.866 0
    endloop
  endfacet
  facet normal 0.5547 0.83205 0
    outer loop
      vertex 31.5 25.866 0
      vertex 28.5 27.866 6
      vertex 31.5 25.866 6
    endloop
  endfacet
  facet normal 0.382685 0.923879 0
    outer loop
      vertex 28.2588 27.9659 0
      vertex 28.2588 27.9659 6
      vertex 28.5 27.866 0
    endloop
  endfacet
  facet normal 0.382685 0.923879 0
    outer loop
      vertex 28.5 27.866 0
      vertex 28.2588 27.9659 6
      vertex 28.5 27.866 6
    endloop
  endfacet
  facet normal 0.130526 0.991445 0
    outer loop
      vertex 28 28 0
      vertex 28 28 6
      vertex 28.2588 27.9659 0
    endloop
  endfacet
  facet normal 0.130526 0.991445 0
    outer loop
      vertex 28.2588 27.9659 0
      vertex 28 28 6
      vertex 28.2588 27.9659 6
    endloop
  endfacet
  facet normal 0 1 0
    outer loop
      vertex 1 28 0
      vertex 1 28 6
      vertex 28 28 0
    endloop
  endfacet
  facet normal 0 1 0
    outer loop
      vertex 28 28 0
      vertex 1 28 6
      vertex 28 28 6
    endloop
  endfacet
  facet normal -0.130526 0.991445 0
    outer loop
      vertex 0.741181 27.9659 0
      vertex 0.741181 27.9659 6
      vertex 1 28 0
    endloop
  endfacet
  facet normal -0.130526 0.991445 0
    outer loop
      vertex 1 28 0
      vertex 0.741181 27.9659 6
      vertex 1 28 6
    endloop
  endfacet
  facet normal -0.382685 0.923879 0
    outer loop
      vertex 0.5 27.866 0
      vertex 0.5 27.866 6
      vertex 0.741181 27.9659 0
    endloop
  endfacet
  facet normal -0.382685 0.923879 0
    outer loop
      vertex 0.741181 27.9659 0
      vertex 0.5 27.866 6
      vertex 0.741181 27.9659 6
    endloop
  endfacet
  facet normal -0.60876 0.793355 0
    outer loop
      vertex 0.292893 27.7071 0
      vertex 0.292893 27.7071 6
      vertex 0.5 27.866 0
    endloop
  endfacet
  facet normal -0.60876 0.793355 0
    outer loop
      vertex 0.5 27.866 0
      vertex 0.292893 27.7071 6
      vertex 0.5 27.866 6
    endloop
  endfacet
  facet normal -0.793355 0.60876 0
    outer loop
      vertex 0.133975 27.5 0
      vertex 0.133975 27.5 6
      vertex 0.292893 27.7071 0
    endloop
  endfacet
  facet normal -0.793355 0.60876 0
    outer loop
      vertex 0.292893 27.7071 0
      vertex 0.133975 27.5 6
      vertex 0.292893 27.7071 6
    endloop
  endfacet
  facet normal -0.923879 0.382685 0
    outer loop
      vertex 0.034074 27.2588 0
      vertex 0.034074 27.2588 6
      vertex 0.133975 27.5 0
    endloop
  endfacet
  facet normal -0.923879 0.382685 0
    outer loop
      vertex 0.133975 27.5 0
      vertex 0.034074 27.2588 6
      vertex 0.133975 27.5 6
    endloop
  endfacet
  facet normal -0.991445 0.130526 0
    outer loop
      vertex 0 27 0
      vertex 0 27 6
      vertex 0.034074 27.2588 0
    endloop
  endfacet
  facet normal -0.991445 0.130526 0
    outer loop
      vertex 0.034074 27.2588 0
      vertex 0 27 6
      vertex 0.034074 27.2588 6
    endloop
  endfacet
  facet normal 0 0 1
    outer loop
      vertex 35.8 1.76497 6
      vertex 37 0.564971 6
      vertex 35.8 4 6
    endloop
  endfacet
  facet normal 0 -0 1
    outer loop
      vertex 30 6.828 6
      vertex 30 4 6
      vertex 35.8 4 6
    endloop
  endfacet
  facet normal -0 0 1
    outer loop
      vertex 40.5 4.06497 6
      vertex 30 6.828 6
      vertex 35.8 4 6
    endloop
  endfacet
  facet normal 0 0 1
    outer loop
      vertex 37 0.564971 6
      vertex 40.5 4.06497 6
      vertex 35.8 4 6
    endloop
  endfacet
  facet normal 0 0 1
    outer loop
      vertex 40.5 4.06497 6
      vertex 40.5 6.828 6
      vertex 30 6.828 6
    endloop
  endfacet
  facet normal 0 -0 1
    outer loop
      vertex 30 24 6
      vertex 30 21.172 6
      vertex 40.5 21.172 6
    endloop
  endfacet
  facet normal 0 -0 1
    outer loop
      vertex 35.8 24 6
      vertex 30 24 6
      vertex 40.5 23.935 6
    endloop
  endfacet
  facet normal -0 0 1
    outer loop
      vertex 40.5 23.935 6
      vertex 30 24 6
      vertex 40.5 21.172 6
    endloop
  endfacet
  facet normal 0 -0 1
    outer loop
      vertex 37 27.435 6
      vertex 35.8 26.235 6
      vertex 40.5 23.935 6
    endloop
  endfacet
  facet normal 0 -0 1
    outer loop
      vertex 35.8 26.235 6
      vertex 35.8 24 6
      vertex 40.5 23.935 6
    endloop
  endfacet
endsolid OpenSCAD_Model
